<?xml version="1.0" encoding="utf-8"?>
<!-- Generator: Adobe Illustrator 16.0.0, SVG Export Plug-In . SVG Version: 6.00 Build 0)  -->
<!DOCTYPE svg PUBLIC "-//W3C//DTD SVG 1.1//EN" "http://www.w3.org/Graphics/SVG/1.1/DTD/svg11.dtd">
<svg version="1.1" id="Capa_1" xmlns="http://www.w3.org/2000/svg" xmlns:xlink="http://www.w3.org/1999/xlink" x="0px" y="0px"
	 width="28.649px" height="32.405px" viewBox="29.677 0 28.649 32.405" enable-background="new 29.677 0 28.649 32.405"
	 xml:space="preserve">
<g>
	<path fill="#E80000" d="M54.129,7.952c-0.478-0.478-1.252-0.478-1.729,0c-0.478,0.478-0.478,1.252,0,1.729
		c2.244,2.244,3.48,5.229,3.48,8.402s-1.236,6.158-3.48,8.402c-2.316,2.316-5.358,3.474-8.401,3.474
		c-3.043,0-6.086-1.158-8.403-3.475c-4.632-4.632-4.632-12.169,0.001-16.802c0.478-0.478,0.478-1.252,0-1.729
		c-0.478-0.478-1.252-0.478-1.73,0c-5.586,5.586-5.586,14.675-0.001,20.261c2.794,2.794,6.463,4.19,10.133,4.19
		c3.668,0,7.338-1.396,10.131-4.189c2.706-2.706,4.196-6.304,4.196-10.132C58.325,14.257,56.835,10.658,54.129,7.952z"/>
	<path fill="#E80000" d="M43.997,15.845c0.676,0,1.223-0.547,1.223-1.223V1.223C45.22,0.548,44.673,0,43.997,0
		s-1.223,0.548-1.223,1.223v13.399C42.774,15.297,43.321,15.845,43.997,15.845z"/>
</g>
</svg>
